<svg xmlns="http://www.w3.org/2000/svg" viewBox="0 0 24 24">
  <defs>
    <style>
      .cls-1 {
        fill: #2a2d30;
      }
    </style>
  </defs>
  <title>24</title>
  <g id="scroll">
    <g>
      <rect x="9" y="12" width="8" height="1"/>
      <polygon class="cls-1" points="17 12 9 12 9 13 17 13 17 12 17 12"/>
    </g>
    <g>
      <rect x="9" y="10" width="8" height="1"/>
      <polygon class="cls-1" points="17 10 9 10 9 11 17 11 17 10 17 10"/>
    </g>
    <g>
      <rect x="9" y="8" width="8" height="1"/>
      <polygon class="cls-1" points="17 8 9 8 9 9 17 9 17 8 17 8"/>
    </g>
    <g>
      <rect x="9" y="6" width="8" height="1"/>
      <polygon class="cls-1" points="17 6 9 6 9 7 17 7 17 6 17 6"/>
    </g>
    <path id="scroll-2" data-name="scroll" d="M6,3V14H4v3.52A3.48,3.48,0,0,0,7.48,21H16v0a4,4,0,0,0,4-3.88V3Zm8,16H7.48A1.48,1.48,0,0,1,6,17.52V16h8Zm4-1.9A2,2,0,0,1,16,19V14H8V5H18Z"/>
  </g>
</svg>
