<svg xmlns="http://www.w3.org/2000/svg" viewBox="0 0 32 32">
  <defs>
    <style>
      .cls-1 {
        fill-rule: evenodd;
      }
    </style>
  </defs>
  <title>32</title>
  <g id="capMarkets">
    <path id="screen" class="cls-1" d="M26,5H17V4H15V5H6A2,2,0,0,0,4,7V22a2,2,0,0,0,2,2h8.26l-2.66,3.11,1.52,1.3L16,25.06l2.87,3.35,1.52-1.3L17.75,24H26a2,2,0,0,0,2-2V7A2,2,0,0,0,26,5Zm0,17H6V7H26Z"/>
    <polygon id="arrow" class="cls-1" points="8.1 18.7 9.7 19.9 14.1 14.01 17.54 17.45 22 12.49 22 15 24 15 24 10 24 9 18 9 18 11 20.66 11 17.47 14.56 13.89 10.98 8.1 18.7"/>
  </g>
</svg>
