<svg xmlns="http://www.w3.org/2000/svg" viewBox="0 0 32 32">
  <defs>
    <style>
      .cls-1 {
        fill: #231f20;
      }
    </style>
  </defs>
  <title>32</title>
  <g id="dockets">
    <rect id="line5" class="cls-1" x="8" y="24" width="10" height="1"/>
    <rect id="line4" class="cls-1" x="8" y="21" width="12" height="2"/>
    <rect id="line3" class="cls-1" x="8" y="19" width="6" height="1"/>
    <rect id="line2" class="cls-1" x="8" y="17" width="12" height="1"/>
    <rect id="line1" class="cls-1" x="8" y="15" width="12" height="1"/>
    <polygon id="heading" class="cls-1" points="19 14 19 13 9 13 9 11 17 11 17 10 8 10 8 14 19 14"/>
    <path id="docs" class="cls-1" d="M27,7.59,22.41,3H9V7H5V29H23V25h4ZM21,27H7V9H18v3h3Zm4-4H23V11.59L18.41,7H11V5H22V8h3Z"/>
  </g>
</svg>
