<svg xmlns="http://www.w3.org/2000/svg" viewBox="0 0 32 32">
  <title>32</title>
  <g id="marketInfo">
    <path id="circle" d="M19,20.5A4.5,4.5,0,1,0,23.5,16,4.5,4.5,0,0,0,19,20.5Zm8,0A3.5,3.5,0,1,1,23.5,17,3.5,3.5,0,0,1,27,20.5Z"/>
    <rect id="iLine" x="23" y="20" width="1" height="3"/>
    <rect id="iDot" x="23" y="18" width="1" height="1"/>
    <path id="bar4" d="M26,14.5V6a1,1,0,0,0-1-1H23a1,1,0,0,0-1,1v8.18a6.43,6.43,0,0,1,4,.32Z"/>
    <path id="bar3" d="M21,14.5V10a1,1,0,0,0-1-1H18a1,1,0,0,0-1,1V20.5A6.5,6.5,0,0,1,21,14.5Z"/>
    <path id="chart" d="M17,20.5V26H16V15a1,1,0,0,0-1-1H13a1,1,0,0,0-1,1V26H11V18a1,1,0,0,0-1-1H8a1,1,0,0,0-1,1v8H6V4H4V28H28V26H20.05A6.49,6.49,0,0,1,17,20.5Z"/>
  </g>
</svg>
