<svg xmlns="http://www.w3.org/2000/svg" viewBox="0 0 32 32">
  <defs>
    <style>
      .cls-1 {
        fill: #231f20;
      }
    </style>
  </defs>
  <title>32</title>
  <g id="website">
    <path id="ad" class="cls-1" d="M20,13V24h4V13Zm3,10H21V14h2Z"/>
    <rect id="line3" class="cls-1" x="8" y="22" width="6" height="1"/>
    <rect id="line2" class="cls-1" x="8" y="20" width="10" height="1"/>
    <rect id="line1" class="cls-1" x="8" y="18" width="10" height="1"/>
    <path id="heading" class="cls-1" d="M8,13v4H18V13Zm9,3H9V14h8Z"/>
    <circle id="circle3" class="cls-1" cx="14" cy="8" r="1"/>
    <circle id="circle2" class="cls-1" cx="11" cy="8" r="1"/>
    <circle id="circle1" class="cls-1" cx="8" cy="8" r="1"/>
    <path id="browser" class="cls-1" d="M26,4H6A2,2,0,0,0,4,6V26a2,2,0,0,0,2,2H26a2,2,0,0,0,2-2V6A2,2,0,0,0,26,4Zm0,22H6V11H26Zm0-16H6V6H26Z"/>
  </g>
</svg>
